<svg width="24" height="18" viewBox="0 0 24 18" fill="none" xmlns="http://www.w3.org/2000/svg">
<g>
<path fill-rule="evenodd" clip-rule="evenodd" d="M14.46 5.68165L14.8968 6.71765C14.8968 6.71765 17.2728 7.56245 17.272 7.68965V9.54565C17.272 9.67045 14.9016 10.5848 14.9016 10.5848L14.4648 11.6208C14.4648 11.6208 15.5336 13.8632 15.4416 13.952L14.0992 15.2664C14.0088 15.352 11.6744 14.3584 11.6744 14.3584L10.6184 14.7864C10.6184 14.7864 9.7536 17.1112 9.6232 17.1112H7.7272C7.5992 17.1112 6.6664 14.7944 6.6664 14.7944L5.6096 14.3648C5.6096 14.3648 3.3192 15.4096 3.2288 15.3208L1.8856 14.008C1.7968 13.92 2.8112 11.6312 2.8112 11.6312L2.3752 10.5984C2.3752 10.5984 0 9.75285 0 9.62485V7.76725C0 7.64245 2.3696 6.73125 2.3696 6.73125L2.8048 5.69525C2.8048 5.69525 1.7368 3.45445 1.8296 3.36245L3.1712 2.04805C3.2608 1.96245 5.5984 2.95605 5.5984 2.95605L6.6536 2.52805C6.6536 2.52805 7.516 0.203247 7.6472 0.203247H9.5432C9.6696 0.203247 10.6048 2.52165 10.6048 2.52165L11.6608 2.94805C11.6608 2.94805 13.9496 1.90485 14.0432 1.99525L15.3856 3.30645C15.4736 3.39445 14.46 5.68165 14.46 5.68165ZM5.8688 8.65605C5.8688 10.1496 7.112 11.3656 8.636 11.3656C10.1624 11.3656 11.4032 10.1504 11.4032 8.65605C11.4032 7.16405 10.1624 5.94805 8.636 5.94805C7.112 5.94805 5.8688 7.16405 5.8688 8.65605Z" fill="black"/>
<path fill-rule="evenodd" clip-rule="evenodd" d="M22.8416 4.0136L22.8304 4.5544C22.8304 4.5544 23.7072 5.392 23.684 5.448L23.3184 6.264C23.2928 6.3184 22.0744 6.256 22.0744 6.256L21.6792 6.6232C21.6792 6.6232 21.7072 7.8192 21.6488 7.8392L20.8024 8.1536C20.7448 8.1736 19.9152 7.2784 19.9152 7.2784L19.3672 7.26C19.3672 7.26 18.532 8.1096 18.4744 8.0832L17.6416 7.7112C17.5848 7.6864 17.6288 6.4848 17.6288 6.4848L17.2504 6.0896C17.2504 6.0896 16.04 6.0984 16.016 6.0424L15.684 5.2032C15.6624 5.1472 16.556 4.3408 16.556 4.3408L16.5672 3.8032C16.5672 3.8032 15.6896 2.9656 15.7152 2.908L16.0808 2.092C16.1056 2.0376 17.324 2.1032 17.324 2.1032L17.72 1.7328C17.72 1.7328 17.692 0.538398 17.7488 0.518398L18.5976 0.203998C18.6536 0.182398 19.4848 1.0776 19.4848 1.0776L20.032 1.0992C20.032 1.0992 20.8664 0.244798 20.9256 0.271198L21.7584 0.644798C21.8152 0.669598 21.7688 1.8712 21.7688 1.8712L22.148 2.2648C22.148 2.2648 23.3584 2.2568 23.3832 2.3144L23.7144 3.1528C23.736 3.2088 22.8416 4.0136 22.8416 4.0136ZM19.1664 5.3672C19.8384 5.6672 20.6224 5.376 20.916 4.72C21.208 4.0656 20.9008 3.2888 20.2312 2.9872C19.5624 2.6888 18.776 2.9784 18.484 3.6328C18.1904 4.2904 18.4976 5.0688 19.1664 5.3672Z" fill="black"/>
</g>
</svg>
