<svg width="22" height="22" viewBox="0 0 22 22" fill="none" xmlns="http://www.w3.org/2000/svg">
<g>
<path fill-rule="evenodd" clip-rule="evenodd" d="M11.6563 18.276V7C11.4441 7.04092 11.2247 7.06281 11 7.06281C10.7753 7.06281 10.5558 7.04092 10.3437 7V18.276H7.96898L6 22H16L14.031 18.276H11.6563Z" fill="black"/>
<path fill-rule="evenodd" clip-rule="evenodd" d="M9 11.75V11H0V11.75C0 13.8235 2.01583 17 4.5 17C6.98417 17 9 13.8235 9 11.75Z" fill="black"/>
<path fill-rule="evenodd" clip-rule="evenodd" d="M13 11V11.75C13 13.8235 15.0158 17 17.5 17C19.9842 17 22 13.8235 22 11.75V11H13Z" fill="black"/>
<path fill-rule="evenodd" clip-rule="evenodd" d="M4.47712 7.53824L6.44293 11H7.95425L5.42398 6.54418L9.54631 4.8185C9.90282 5.24677 10.419 5.52282 11 5.52282C11.581 5.52282 12.0972 5.24677 12.4537 4.81855L16.576 6.54422L14.0458 11H15.5571L17.5229 7.53824L19.4887 11H21L17.9664 5.65788L12.9364 3.5472C12.9373 3.52059 12.9439 3.49572 12.9439 3.46888C12.9439 2.57747 12.4006 1.82463 11.648 1.54105V0H10.352V1.54105C9.59944 1.82463 9.0561 2.57747 9.0561 3.46888C9.0561 3.49572 9.06266 3.52059 9.06361 3.5472L4.03353 5.65788L1 11H2.51132L4.47712 7.53824Z" fill="black"/>
</g>
</svg>
