<svg width="14" height="23" viewBox="0 0 14 23" fill="none" xmlns="http://www.w3.org/2000/svg">
<path fill-rule="evenodd" clip-rule="evenodd" d="M13.939 8.53562C13.8556 8.39026 13.6996 8.30042 13.5306 8.30041H7.38164L8.41253 0.515335C8.4353 0.300871 8.30641 0.0989242 8.10077 0.0268663C7.89514 -0.0451916 7.66633 0.031413 7.54733 0.212157L0.0695295 13.1606C-0.0195112 13.3038 -0.023284 13.4833 0.0596666 13.63C0.142617 13.7767 0.299324 13.8675 0.46933 13.8676H6.52642L5.70945 21.6643C5.69293 21.878 5.82572 22.0753 6.03146 22.1428C6.2372 22.2104 6.46304 22.1308 6.5791 21.9498L13.9333 9.00268C14.0202 8.85935 14.0223 8.68096 13.939 8.53562Z" fill="#178AE4"/>
</svg>
